<svg width="200" height="154" viewBox="0 0 200 154" fill="none" xmlns="http://www.w3.org/2000/svg">
<path d="M150.848 2.58929C151.564 2.58929 152.143 2.01058 152.143 1.29464C152.143 0.578705 151.564 0 150.848 0H49.8661C49.1501 0 48.5714 0.578705 48.5714 1.29464C48.5714 2.01058 49.1501 2.58929 49.8661 2.58929H68.9815V7.28366H57.5252C56.8092 7.28366 56.2305 7.86236 56.2305 8.5783V102.277C56.2305 102.993 56.8092 103.571 57.5252 103.571H143.188C143.904 103.571 144.482 102.993 144.482 102.277V8.5783C144.482 7.86236 143.904 7.28366 143.188 7.28366H131.731V2.58929H150.848ZM141.893 9.87294V100.982H58.8198V9.87294H68.9815V14.8301C66.387 15.4218 64.4398 17.7379 64.4398 20.5084C64.4398 23.7256 67.0576 26.3447 70.2761 26.3447C73.4946 26.3447 76.1123 23.7269 76.1123 20.5084C76.1123 17.7366 74.1652 15.4218 71.5707 14.8301V9.87294H129.143V14.8301C126.549 15.4218 124.603 17.7379 124.603 20.5084C124.603 23.7256 127.22 26.3447 130.438 26.3447C133.657 26.3447 136.274 23.7269 136.274 20.5084C136.274 17.7366 134.327 15.4218 131.733 14.8301V9.87294H141.893ZM70.2761 21.4147C70.992 21.4147 71.5707 20.836 71.5707 20.12V17.5359C72.7178 18.037 73.5231 19.1801 73.5231 20.5084C73.5231 22.2989 72.0666 23.7554 70.2761 23.7554C68.4856 23.7554 67.0291 22.2989 67.0291 20.5084C67.0291 19.1801 67.8344 18.037 68.9815 17.5359V20.12C68.9815 20.8347 69.5602 21.4147 70.2761 21.4147ZM130.437 21.4147C131.153 21.4147 131.731 20.836 131.731 20.12V17.5359C132.879 18.037 133.684 19.1801 133.684 20.5084C133.684 22.2989 132.227 23.7554 130.437 23.7554C128.648 23.7554 127.191 22.2989 127.191 20.5084C127.191 19.1801 127.996 18.0383 129.142 17.5359V20.12C129.142 20.8347 129.722 21.4147 130.437 21.4147ZM129.142 7.28366H71.5694V2.58929H129.142V7.28366Z" fill="#39E991"/>
<path d="M112.733 25.0953H110.541C110.046 19.6681 105.474 15.401 99.9196 15.401C94.3656 15.401 89.7929 19.6681 89.2983 25.0953H87.526C86.81 25.0953 86.2313 25.674 86.2313 26.3899V33.0094C86.2313 33.7254 86.81 34.3041 87.526 34.3041H88.3209V76.7425H87.526C86.81 76.7425 86.2313 77.3212 86.2313 78.0371V84.6566C86.2313 85.3726 86.81 85.9513 87.526 85.9513H89.7243C90.2939 91.2269 94.7708 95.3491 100.194 95.3491C105.617 95.3491 110.094 91.2269 110.663 85.9513H112.733C113.449 85.9513 114.027 85.3726 114.027 84.6566V78.0371C114.027 77.3212 113.449 76.7425 112.733 76.7425H111.936V34.3041H112.733C113.449 34.3041 114.027 33.7254 114.027 33.0094V26.3899C114.027 25.6753 113.447 25.0953 112.733 25.0953ZM99.9183 17.9903C104.044 17.9903 107.451 21.0987 107.935 25.0953H91.9019C92.3861 21.0987 95.7923 17.9903 99.9183 17.9903ZM88.8193 27.6846H111.438V31.7148H88.8193V27.6846ZM90.9089 45.7992L109.334 58.0685C109.338 58.0711 109.342 58.0711 109.346 58.0737V66.1924L90.9089 53.9166V45.7992ZM109.346 54.964L90.9089 42.6882V34.5721L109.334 46.8401C109.338 46.8427 109.342 46.8427 109.346 46.8453V54.964ZM90.9089 68.2664L103.51 76.7438H90.9089V68.2664ZM100.193 92.7611C96.1988 92.7611 92.8936 89.7963 92.3382 85.9525H108.045C107.491 89.7963 104.185 92.7611 100.193 92.7611ZM111.438 83.3633H88.8193V79.333H111.438V83.3633ZM108.112 76.7438C108.082 76.7205 108.067 76.6868 108.034 76.6648L90.9089 65.1425V57.0251L109.334 69.2944C109.338 69.297 109.342 69.297 109.346 69.2996V76.7438H108.112ZM109.346 43.7368L95.1786 34.3041H109.346V43.7368Z" fill="#39E991"/>
<path d="M0 153.168V117.857H6.91266V130.141C7.62883 129.207 8.66418 128.436 10.0187 127.829C11.3732 127.222 12.9379 126.918 14.7128 126.918C17.3595 126.918 19.6559 127.51 21.6021 128.693C23.5482 129.876 25.035 131.488 26.0626 133.527C27.0901 135.567 27.6039 137.832 27.6039 140.323C27.6039 142.814 27.0901 145.08 26.0626 147.119C25.035 149.159 23.5482 150.77 21.6021 151.953C19.6559 153.137 17.3595 153.728 14.7128 153.728C13.0002 153.728 11.4199 153.409 9.97198 152.771C8.52405 152.132 7.50428 151.408 6.91266 150.599V153.168H0ZM8.52405 145.625C9.78515 146.917 11.5055 147.563 13.6852 147.563C15.8026 147.563 17.5074 146.878 18.7996 145.508C20.0919 144.138 20.738 142.41 20.738 140.323C20.738 138.175 20.1074 136.423 18.8463 135.069C17.5852 133.714 15.8649 133.037 13.6852 133.037C11.5367 133.037 9.82407 133.714 8.54741 135.069C7.27075 136.423 6.63241 138.175 6.63241 140.323C6.63241 142.565 7.26296 144.332 8.52405 145.625ZM52.7791 150.599C52.1875 151.408 51.1677 152.132 49.7198 152.771C48.2718 153.409 46.6916 153.728 44.979 153.728C42.3322 153.728 40.0358 153.137 38.0897 151.953C36.1436 150.77 34.6567 149.159 33.6291 147.119C32.6016 145.08 32.0878 142.814 32.0878 140.323C32.0878 137.832 32.6016 135.567 33.6291 133.527C34.6567 131.488 36.1436 129.876 38.0897 128.693C40.0358 127.51 42.3322 126.918 44.979 126.918C46.7539 126.918 48.3185 127.222 49.6731 127.829C51.0276 128.436 52.0629 129.207 52.7791 130.141V127.479H59.6917V153.168H52.7791V150.599ZM51.1443 135.069C49.8677 133.714 48.1551 133.037 46.0065 133.037C43.8269 133.037 42.1065 133.714 40.8454 135.069C39.5843 136.423 38.9538 138.175 38.9538 140.323C38.9538 142.41 39.5999 144.138 40.8921 145.508C42.1843 146.878 43.8892 147.563 46.0065 147.563C48.1862 147.563 49.9066 146.917 51.1677 145.625C52.4288 144.332 53.0593 142.565 53.0593 140.323C53.0593 138.175 52.421 136.423 51.1443 135.069ZM78.8417 134.181C77.5027 134.508 76.2728 135.279 75.1518 136.493C74.0308 137.708 73.4703 139.483 73.4703 141.818V153.168H66.511V127.479H73.4703V130.888C74.6225 129.363 76.0315 128.327 77.6973 127.782C79.3632 127.238 80.8812 126.981 82.2513 127.012V133.831C81.3171 133.738 80.1806 133.854 78.8417 134.181ZM86.4082 153.168V117.857H93.3209V130.141C94.0371 129.207 95.0724 128.436 96.4269 127.829C97.7814 127.222 99.3461 126.918 101.121 126.918C103.768 126.918 106.064 127.51 108.01 128.693C109.956 129.876 111.443 131.488 112.471 133.527C113.498 135.567 114.012 137.832 114.012 140.323C114.012 142.814 113.498 145.08 112.471 147.119C111.443 149.159 109.956 150.77 108.01 151.953C106.064 153.137 103.768 153.728 101.121 153.728C99.4084 153.728 97.8281 153.409 96.3802 152.771C94.9323 152.132 93.9125 151.408 93.3209 150.599V153.168H86.4082ZM94.9323 145.625C96.1934 146.917 97.9138 147.563 100.093 147.563C102.211 147.563 103.916 146.878 105.208 145.508C106.5 144.138 107.146 142.41 107.146 140.323C107.146 138.175 106.516 136.423 105.255 135.069C103.993 133.714 102.273 133.037 100.093 133.037C97.9449 133.037 96.2323 133.714 94.9556 135.069C93.679 136.423 93.0406 138.175 93.0406 140.323C93.0406 142.565 93.6712 144.332 94.9323 145.625ZM125.432 151.977C123.299 150.778 121.61 149.151 120.364 147.096C119.119 145.041 118.496 142.799 118.496 140.37C118.496 137.972 119.119 135.746 120.364 133.691C121.61 131.636 123.299 130.009 125.432 128.81C127.565 127.611 129.893 127.012 132.415 127.012C134.937 127.012 137.272 127.611 139.421 128.81C141.569 130.009 143.274 131.636 144.535 133.691C145.796 135.746 146.427 137.972 146.427 140.37C146.427 142.799 145.796 145.041 144.535 147.096C143.274 149.151 141.569 150.778 139.421 151.977C137.272 153.176 134.937 153.775 132.415 153.775C129.893 153.775 127.565 153.176 125.432 151.977ZM128.865 134.088C127.775 134.726 126.919 135.598 126.296 136.704C125.673 137.809 125.362 139.031 125.362 140.37C125.362 141.771 125.666 143.025 126.273 144.13C126.88 145.235 127.721 146.107 128.795 146.746C129.869 147.384 131.076 147.703 132.415 147.703C133.723 147.703 134.914 147.384 135.988 146.746C137.062 146.107 137.911 145.228 138.533 144.107C139.156 142.986 139.468 141.74 139.468 140.37C139.468 139.031 139.156 137.809 138.533 136.704C137.911 135.598 137.062 134.726 135.988 134.088C134.914 133.45 133.723 133.13 132.415 133.13C131.138 133.13 129.955 133.45 128.865 134.088ZM150.677 149.758L154.32 144.901C155.441 145.679 156.749 146.333 158.244 146.862C159.738 147.392 161.202 147.656 162.634 147.656C163.693 147.656 164.573 147.438 165.273 147.002C165.974 146.567 166.324 146.022 166.324 145.368C166.324 144.714 165.927 144.255 165.133 143.99C164.339 143.725 163.568 143.538 162.821 143.429C162.074 143.32 161.591 143.25 161.373 143.219C159.505 142.908 157.894 142.534 156.539 142.098C155.185 141.662 153.955 140.884 152.849 139.763C151.744 138.642 151.191 137.101 151.191 135.139C151.191 131.9 152.367 129.736 154.717 128.647C157.068 127.557 159.427 127.012 161.794 127.012C163.818 127.012 165.686 127.308 167.398 127.899C169.111 128.491 170.808 129.425 172.49 130.702L168.846 135.466C167.632 134.75 166.433 134.174 165.25 133.738C164.067 133.302 162.837 133.084 161.56 133.084C160.782 133.084 160.026 133.255 159.295 133.597C158.563 133.94 158.197 134.407 158.197 134.999C158.197 135.746 158.703 136.275 159.715 136.587C160.727 136.898 161.84 137.132 163.055 137.287C165.234 137.661 166.978 138.05 168.286 138.455C169.594 138.86 170.754 139.615 171.766 140.72C172.778 141.826 173.284 143.39 173.284 145.414C173.284 148.092 172.365 150.155 170.528 151.603C168.691 153.051 166.091 153.775 162.728 153.775C158.057 153.775 154.04 152.436 150.677 149.758ZM177.394 149.758L181.037 144.901C182.158 145.679 183.466 146.333 184.96 146.862C186.455 147.392 187.918 147.656 189.351 147.656C190.409 147.656 191.289 147.438 191.99 147.002C192.69 146.567 193.041 146.022 193.041 145.368C193.041 144.714 192.644 144.255 191.85 143.99C191.056 143.725 190.285 143.538 189.538 143.429C188.79 143.32 188.308 143.25 188.09 143.219C186.221 142.908 184.61 142.534 183.255 142.098C181.901 141.662 180.671 140.884 179.566 139.763C178.46 138.642 177.908 137.101 177.908 135.139C177.908 131.9 179.083 129.736 181.434 128.647C183.785 127.557 186.144 127.012 188.51 127.012C190.534 127.012 192.402 127.308 194.115 127.899C195.828 128.491 197.525 129.425 199.206 130.702L195.563 135.466C194.348 134.75 193.15 134.174 191.966 133.738C190.783 133.302 189.553 133.084 188.277 133.084C187.498 133.084 186.743 133.255 186.011 133.597C185.279 133.94 184.914 134.407 184.914 134.999C184.914 135.746 185.42 136.275 186.432 136.587C187.444 136.898 188.557 137.132 189.771 137.287C191.951 137.661 193.695 138.05 195.002 138.455C196.31 138.86 197.47 139.615 198.482 140.72C199.494 141.826 200 143.39 200 145.414C200 148.092 199.081 150.155 197.244 151.603C195.407 153.051 192.807 153.775 189.444 153.775C184.773 153.775 180.757 152.436 177.394 149.758Z" fill="white"/>
</svg>
