<svg width="14" height="16" viewBox="0 0 14 17" fill="none" xmlns="http://www.w3.org/2000/svg">
<path fill-rule="evenodd" clip-rule="evenodd" d="M5.21316 3.33329L3.98295 0.803507C3.95585 0.727902 3.86988 0.666626 3.78839 0.666626H0.478739C0.398384 0.666626 0.333252 0.731003 0.333252 0.812256V1.12264C0.333252 1.20307 0.398716 1.26827 0.477356 1.26827H3.40037C3.47995 1.26827 3.56602 1.32904 3.59385 1.40747L4.52808 3.33329H2.33154C1.59388 3.33329 1.37062 3.80154 1.8279 4.37915L6.99992 10.9122V14.6666H5.66659V15.3333H8.99992V14.6666H7.66659V10.9122L12.8386 4.37915C13.2987 3.79798 13.0704 3.33329 12.335 3.33329H5.21316Z" fill="#39E991"/>
</svg>
